[Header]
FileType HTR
DataType HTRS
FileVersion 1
NumSegments 64
NumFrames 4
DataFrameRate 24
EulerRotationOrder ZYX
CalibrationUnits mm
RotationUnits Degrees
GlobalAxisofGravity Y
BoneLengthAxis Y
ScaleFactor 1.0
[SegmentNames&Hierarchy]
Hips	GLOBAL
Spine	Hips
Spine1	Spine
Spine2	Spine1
Neck	Spine2
Head	Neck
LeftEye	Head
RightEye	Head
LeftShoulder	Spine2
LeftArm	LeftShoulder
LeftForeArm	LeftArm
LeftHand	LeftForeArm
LeftHandThumb1	LeftHand
LeftHandThumb2	LeftHandThumb1
LeftHandThumb3	LeftHandThumb2
LeftHandThumb4	LeftHandThumb3
LeftHandIndex1	LeftHand
LeftHandIndex2	LeftHandIndex1
LeftHandIndex3	LeftHandIndex2
LeftHandIndex4	LeftHandIndex3
LeftHandMiddle1	LeftHand
LeftHandMiddle2	LeftHandMiddle1
LeftHandMiddle3	LeftHandMiddle2
LeftHandMiddle4	LeftHandMiddle3
LeftHandRing1	LeftHand
LeftHandRing2	LeftHandRing1
LeftHandRing3	LeftHandRing2
LeftHandRing4	LeftHandRing3
LeftHandPinky1	LeftHand
LeftHandPinky2	LeftHandPinky1
LeftHandPinky3	LeftHandPinky2
LeftHandPinky4	LeftHandPinky3
RightShoulder	Spine2
RightArm	RightShoulder
RightForeArm	RightArm
RightHand	RightForeArm
RightHandPinky1	RightHand
RightHandPinky2	RightHandPinky1
RightHandPinky3	RightHandPinky2
RightHandPinky4	RightHandPinky3
RightHandRing1	RightHand
RightHandRing2	RightHandRing1
RightHandRing3	RightHandRing2
RightHandRing4	RightHandRing3
RightHandMiddle1	RightHand
RightHandMiddle2	RightHandMiddle1
RightHandMiddle3	RightHandMiddle2
RightHandMiddle4	RightHandMiddle3
RightHandIndex1	RightHand
RightHandIndex2	RightHandIndex1
RightHandIndex3	RightHandIndex2
RightHandIndex4	RightHandIndex3
RightHandThumb1	RightHand
RightHandThumb2	RightHandThumb1
RightHandThumb3	RightHandThumb2
RightHandThumb4	RightHandThumb3
LeftUpLeg	Hips
LeftLeg	LeftUpLeg
LeftFoot	LeftLeg
LeftToeBase	LeftFoot
RightUpLeg	Hips
RightLeg	RightUpLeg
RightFoot	RightLeg
RightToeBase	RightFoot
[BasePosition]
Hips	0	0	0	0	0	0	1
Spine	0	0	0	0	0	0	1
Spine1	0	0	0	0	0	0	1
Spine2	0	0	0	0	0	0	1
Neck	0	0	0	0	0	0	1
Head	0	0	0	0	0	0	1
LeftEye	0	0	0	0	0	0	1
RightEye	0	0	0	0	0	0	1
LeftShoulder	0	0	0	0	0	0	1
LeftArm	0	0	0	0	0	0	1
LeftForeArm	0	0	0	0	0	0	1
LeftHand	0	0	0	0	0	0	1
LeftHandThumb1	0	0	0	0	0	0	1
LeftHandThumb2	0	0	0	0	0	0	1
LeftHandThumb3	0	0	0	0	0	0	1
LeftHandThumb4	0	0	0	0	0	0	1
LeftHandIndex1	0	0	0	0	0	0	1
LeftHandIndex2	0	0	0	0	0	0	1
LeftHandIndex3	0	0	0	0	0	0	1
LeftHandIndex4	0	0	0	0	0	0	1
LeftHandMiddle1	0	0	0	0	0	0	1
LeftHandMiddle2	0	0	0	0	0	0	1
LeftHandMiddle3	0	0	0	0	0	0	1
LeftHandMiddle4	0	0	0	0	0	0	1
LeftHandRing1	0	0	0	0	0	0	1
LeftHandRing2	0	0	0	0	0	0	1
LeftHandRing3	0	0	0	0	0	0	1
LeftHandRing4	0	0	0	0	0	0	1
LeftHandPinky1	0	0	0	0	0	0	1
LeftHandPinky2	0	0	0	0	0	0	1
LeftHandPinky3	0	0	0	0	0	0	1
LeftHandPinky4	0	0	0	0	0	0	1
RightShoulder	0	0	0	0	0	0	1
RightArm	0	0	0	0	0	0	1
RightForeArm	0	0	0	0	0	0	1
RightHand	0	0	0	0	0	0	1
RightHandPinky1	0	0	0	0	0	0	1
RightHandPinky2	0	0	0	0	0	0	1
RightHandPinky3	0	0	0	0	0	0	1
RightHandPinky4	0	0	0	0	0	0	1
RightHandRing1	0	0	0	0	0	0	1
RightHandRing2	0	0	0	0	0	0	1
RightHandRing3	0	0	0	0	0	0	1
RightHandRing4	0	0	0	0	0	0	1
RightHandMiddle1	0	0	0	0	0	0	1
RightHandMiddle2	0	0	0	0	0	0	1
RightHandMiddle3	0	0	0	0	0	0	1
RightHandMiddle4	0	0	0	0	0	0	1
RightHandIndex1	0	0	0	0	0	0	1
RightHandIndex2	0	0	0	0	0	0	1
RightHandIndex3	0	0	0	0	0	0	1
RightHandIndex4	0	0	0	0	0	0	1
RightHandThumb1	0	0	0	0	0	0	1
RightHandThumb2	0	0	0	0	0	0	1
RightHandThumb3	0	0	0	0	0	0	1
RightHandThumb4	0	0	0	0	0	0	1
LeftUpLeg	0	0	0	0	0	0	1
LeftLeg	0	0	0	0	0	0	1
LeftFoot	0	0	0	0	0	0	1
LeftToeBase	0	0	0	0	0	0	1
RightUpLeg	0	0	0	0	0	0	1
RightLeg	0	0	0	0	0	0	1
RightFoot	0	0	0	0	0	0	1
RightToeBase	0	0	0	0	0	0	1
[Hips]
88	-5.247691154	1034.148926	20.96212769	-4.003809452	-5.01377964	-2.730733156	1.0
89	-5.014432907	1034.236938	20.93154907	-3.979642153	-5.042531967	-2.72693944	1.0
90	-4.775752544	1034.328369	20.91027451	-3.956362247	-5.07252264	-2.722937346	1.0
91	-4.537755013	1034.419678	20.89770889	-3.935384512	-5.102348328	-2.718888044	1.0
[Spine]
88	0	101.8159943	1.315000057	3.231431723	1.640079618	3.015092134	1.0
89	0	101.8159943	1.315000057	3.186777353	1.640289903	3.006888866	1.0
90	0	101.8159943	1.315000057	3.140930414	1.641420245	2.998260021	1.0
91	0	101.8159943	1.315000057	3.095021486	1.64236176	2.989803076	1.0
[Spine1]
88	0	100.8349991	-10.00800037	1.107553363	0.4184855521	1.650622964	1.0
89	0	100.8349991	-10.00800037	1.095290661	0.4180124402	1.648190379	1.0
90	0	100.8349991	-10.00800037	1.08262527	0.4179180264	1.645661116	1.0
91	0	100.8349991	-10.00800037	1.069908619	0.4177639484	1.643188119	1.0
[Spine2]
88	0	91	-13.73399925	1.082191586	0.4414669573	1.653588653	1.0
89	0	91	-13.73399925	1.069914103	0.4409604967	1.651250958	1.0
90	0	91	-13.73399925	1.057232022	0.440833956	1.648816824	1.0
91	0	91	-13.73399925	1.04449904	0.4406478703	1.646438479	1.0
[Neck]
88	0	166.7169952	-25.16200066	5.448037148	-0.2903891504	0.6441366673	1.0
89	0	166.7169952	-25.16200066	5.400886059	-0.2871540785	0.6396968365	1.0
90	0	166.7169952	-25.16200066	5.354366779	-0.2841890752	0.6341276765	1.0
91	0	166.7169952	-25.16200066	5.309940338	-0.2807940841	0.6277014017	1.0
[Head]
88	0	96.17900085	16.84999847	-7.765447617	1.012964606	-0.1948014051	1.0
89	0	96.17900085	16.84999847	-7.771958828	1.024404287	-0.2109294236	1.0
90	0	96.17900085	16.84999847	-7.776499748	1.033581734	-0.2271164209	1.0
91	0	96.17900085	16.84999847	-7.775807858	1.043913245	-0.2441263199	1.0
[LeftEye]
88	30.6760006	64.09500122	92.83599854	0	0	0	1.0
89	30.6760006	64.09500122	92.83599854	0	0	0	1.0
90	30.6760006	64.09500122	92.83599854	0	0	0	1.0
91	30.6760006	64.09500122	92.83599854	0	0	0	1.0
[RightEye]
88	-30.6760006	64.09500122	92.83499908	0	0	0	1.0
89	-30.6760006	64.09500122	92.83499908	0	0	0	1.0
90	-30.6760006	64.09500122	92.83499908	0	0	0	1.0
91	-30.6760006	64.09500122	92.83499908	0	0	0	1.0
[LeftShoulder]
88	45.70400238	109.4599991	-26.28000069	4.738910198	-16.23112869	-12.49800396	1.0
89	45.70400238	109.4599991	-26.28000069	4.734766483	-16.20499229	-12.48402691	1.0
90	45.70400238	109.4599991	-26.28000069	4.730766773	-16.17790031	-12.47117996	1.0
91	45.70400238	109.4599991	-26.28000069	4.727035522	-16.15112686	-12.45971203	1.0
[LeftArm]
88	105.923996	-5.24600029	-22.32099915	20.07483101	-3.209955931	-72.13698578	1.0
89	105.923996	-5.24600029	-22.32099915	20.07806778	-3.179640293	-72.15242767	1.0
90	105.923996	-5.24600029	-22.32099915	20.08050919	-3.147418737	-72.16552734	1.0
91	105.923996	-5.24600029	-22.32099915	20.08381462	-3.11459446	-72.17708588	1.0
[LeftForeArm]
88	278.414978	-0.0009999999311	0	-2.095538366e-05	-1.467032194	-0.0001929330028	1.0
89	278.414978	-0.0009999999311	0	-2.060617953e-05	-1.467464924	-0.0001995003549	1.0
90	278.414978	-0.0009999999311	0	-1.751574928e-05	-1.468376637	-0.0002092703216	1.0
91	278.414978	-0.0009999999311	0	-1.290859655e-05	-1.469098806	-0.0002199297451	1.0
[LeftHand]
88	283.2879944	0	0	-32.46118164	-4.606884003	-4.866978645	1.0
89	283.2879944	0	0	-32.41203308	-4.592290878	-4.90248394	1.0
90	283.2879944	0	0	-32.36582947	-4.577253342	-4.938947678	1.0
91	283.2879944	0	0	-32.31962585	-4.560418606	-4.976509571	1.0
[LeftHandThumb1]
88	24.6609993	-15.75	26.8239994	-0.4889889657	2.201390743	4.818541527	1.0
89	24.6609993	-15.75	26.8239994	-0.4889889657	2.201390743	4.818541527	1.0
90	24.6609993	-15.75	26.8239994	-0.4889889657	2.201390743	4.818541527	1.0
91	24.6609993	-15.75	26.8239994	-0.4889889657	2.201390743	4.818541527	1.0
[LeftHandThumb2]
88	32.29800034	-18.64699936	18.64699936	19.88581276	19.96446037	23.26738167	1.0
89	32.29800034	-18.64699936	18.64699936	19.88581276	19.96446037	23.26738167	1.0
90	32.29800034	-18.64699936	18.64699936	19.88581276	19.96446037	23.26738167	1.0
91	32.29800034	-18.64699936	18.64699936	19.88581276	19.96446037	23.26738167	1.0
[LeftHandThumb3]
88	26.52600098	-15.31499958	15.31499958	-13.14535904	5.551738262	7.967928886	1.0
89	26.52600098	-15.31499958	15.31499958	-13.14535904	5.551738262	7.967928886	1.0
90	26.52600098	-15.31499958	15.31499958	-13.14535904	5.551738262	7.967928886	1.0
91	26.52600098	-15.31499958	15.31499958	-13.14535904	5.551738262	7.967928886	1.0
[LeftHandThumb4]
88	19.54599953	-11.28499985	11.28499985	0	0	0	1.0
89	19.54599953	-11.28499985	11.28499985	0	0	0	1.0
90	19.54599953	-11.28499985	11.28499985	0	0	0	1.0
91	19.54599953	-11.28499985	11.28499985	0	0	0	1.0
[LeftHandIndex1]
88	91.09299469	-5.170999527	22.60099792	0.1480516791	-0.9618676901	-7.594518185	1.0
89	91.09299469	-5.170999527	22.60099792	0.1480516791	-0.9618676901	-7.594518185	1.0
90	91.09299469	-5.170999527	22.60099792	0.1480516791	-0.9618676901	-7.594518185	1.0
91	91.09299469	-5.170999527	22.60099792	0.1480516791	-0.9618676901	-7.594518185	1.0
[LeftHandIndex2]
88	36.76399994	0	0	-0.2667043209	1.745171905	-17.37646866	1.0
89	36.76399994	0	0	-0.2667043209	1.745171905	-17.37646866	1.0
90	36.76399994	0	0	-0.2667043209	1.745171905	-17.37646866	1.0
91	36.76399994	0	0	-0.2667043209	1.745171905	-17.37646866	1.0
[LeftHandIndex3]
88	28.83100128	0	0	-0.05742863193	0.817338407	-8.038370132	1.0
89	28.83100128	0	0	-0.05742863193	0.817338407	-8.038370132	1.0
90	28.83100128	0	0	-0.05742863193	0.817338407	-8.038370132	1.0
91	28.83100128	0	0	-0.05742863193	0.817338407	-8.038370132	1.0
[LeftHandIndex4]
88	23.92700005	0	0	0	0	0	1.0
89	23.92700005	0	0	0	0	0	1.0
90	23.92700005	0	0	0	0	0	1.0
91	23.92700005	0	0	0	0	0	1.0
[LeftHandMiddle1]
88	95.33399963	0	0	-0.7942916155	2.538622379	-15.71737862	1.0
89	95.33399963	0	0	-0.7942916155	2.538622379	-15.71737862	1.0
90	95.33399963	0	0	-0.7942916155	2.538622379	-15.71737862	1.0
91	95.33399963	0	0	-0.7942916155	2.538622379	-15.71737862	1.0
[LeftHandMiddle2]
88	36.98199844	0	0	-0.267610997	1.748071074	-17.40625954	1.0
89	36.98199844	0	0	-0.267610997	1.748071074	-17.40625954	1.0
90	36.98199844	0	0	-0.267610997	1.748071074	-17.40625954	1.0
91	36.98199844	0	0	-0.267610997	1.748071074	-17.40625954	1.0
[LeftHandMiddle3]
88	29.50900078	0	0	-0.2992140949	1.84580946	-18.41413307	1.0
89	29.50900078	0	0	-0.2992140949	1.84580946	-18.41413307	1.0
90	29.50900078	0	0	-0.2992140949	1.84580946	-18.41413307	1.0
91	29.50900078	0	0	-0.2992140949	1.84580946	-18.41413307	1.0
[LeftHandMiddle4]
88	28.3390007	0	0	0	0	0	1.0
89	28.3390007	0	0	0	0	0	1.0
90	28.3390007	0	0	0	0	0	1.0
91	28.3390007	0	0	0	0	0	1.0
[LeftHandRing1]
88	91.04499817	-0.4390000105	-18.65100098	-1.184956431	3.436642885	-21.16632462	1.0
89	91.04499817	-0.4390000105	-18.65100098	-1.184956431	3.436642885	-21.16632462	1.0
90	91.04499817	-0.4390000105	-18.65100098	-1.184956431	3.436642885	-21.16632462	1.0
91	91.04499817	-0.4390000105	-18.65100098	-1.184956431	3.436642885	-21.16632462	1.0
[LeftHandRing2]
88	31.54000092	0	0	-0.3849357069	2.085560799	-20.91281319	1.0
89	31.54000092	0	0	-0.3849357069	2.085560799	-20.91281319	1.0
90	31.54000092	0	0	-0.3849357069	2.085560799	-20.91281319	1.0
91	31.54000092	0	0	-0.3849357069	2.085560799	-20.91281319	1.0
[LeftHandRing3]
88	29.37700081	0	0	-0.2818065584	1.792707562	-17.86576271	1.0
89	29.37700081	0	0	-0.2818065584	1.792707562	-17.86576271	1.0
90	29.37700081	0	0	-0.2818065584	1.792707562	-17.86576271	1.0
91	29.37700081	0	0	-0.2818065584	1.792707562	-17.86576271	1.0
[LeftHandRing4]
88	26.47500038	0	0	0	0	0	1.0
89	26.47500038	0	0	0	0	0	1.0
90	26.47500038	0	0	0	0	0	1.0
91	26.47500038	0	0	0	0	0	1.0
[LeftHandPinky1]
88	80.77799988	-4.887000084	-38.06099701	-1.708467126	5.355370045	-27.1653862	1.0
89	80.77799988	-4.887000084	-38.06099701	-1.708467126	5.355370045	-27.1653862	1.0
90	80.77799988	-4.887000084	-38.06099701	-1.708467126	5.355370045	-27.1653862	1.0
91	80.77799988	-4.887000084	-38.06099701	-1.708467126	5.355370045	-27.1653862	1.0
[LeftHandPinky2]
88	36	0	0	-0.2676221728	1.748113751	-17.40663528	1.0
89	36	0	0	-0.2676221728	1.748113751	-17.40663528	1.0
90	36	0	0	-0.2676221728	1.748113751	-17.40663528	1.0
91	36	0	0	-0.2676221728	1.748113751	-17.40663528	1.0
[LeftHandPinky3]
88	21.14200211	0	0	-0.2408525199	1.660349369	-16.50663185	1.0
89	21.14200211	0	0	-0.2408525199	1.660349369	-16.50663185	1.0
90	21.14200211	0	0	-0.2408525199	1.660349369	-16.50663185	1.0
91	21.14200211	0	0	-0.2408525199	1.660349369	-16.50663185	1.0
[LeftHandPinky4]
88	19.75699997	0	0	0	0	0	1.0
89	19.75699997	0	0	0	0	0	1.0
90	19.75699997	0	0	0	0	0	1.0
91	19.75699997	0	0	0	0	0	1.0
[RightShoulder]
88	-45.70000076	109.4620056	-26.28000069	5.206972122	14.6091938	15.61500359	1.0
89	-45.70000076	109.4620056	-26.28000069	5.197290897	14.56892586	15.57793903	1.0
90	-45.70000076	109.4620056	-26.28000069	5.187524796	14.52744675	15.54098797	1.0
91	-45.70000076	109.4620056	-26.28000069	5.177754402	14.48462582	15.50469112	1.0
[RightArm]
88	-105.9280014	-5.248000145	-22.32099915	30.24255562	2.087127447	62.30818558	1.0
89	-105.9280014	-5.248000145	-22.32099915	30.27350616	2.100287199	62.30857086	1.0
90	-105.9280014	-5.248000145	-22.32099915	30.30531693	2.113004208	62.31087875	1.0
91	-105.9280014	-5.248000145	-22.32099915	30.33760452	2.125682831	62.3134346	1.0
[RightForeArm]
88	-278.414978	0	0	-5.393975698e-06	6.552976131	-8.899107343e-06	1.0
89	-278.414978	0	0	-4.84847078e-06	6.548707962	-1.132601574e-05	1.0
90	-278.414978	0	0	-4.228865237e-06	6.540970325	-1.197435995e-05	1.0
91	-278.414978	0	0	-3.413931381e-06	6.531466007	-1.134500508e-05	1.0
[RightHand]
88	-283.2879944	0	0.0009999999311	-20.00307274	1.567404151	6.040355682	1.0
89	-283.2879944	0	0.0009999999311	-19.99466705	1.558944106	6.052669525	1.0
90	-283.2879944	0	0.0009999999311	-19.98591423	1.552685618	6.067494392	1.0
91	-283.2879944	0	0.0009999999311	-19.97723389	1.547311425	6.081861019	1.0
[RightHandPinky1]
88	-80.76699829	-4.885000229	-38.06000137	-1.507175922	-4.696118355	26.50587463	1.0
89	-80.76699829	-4.885000229	-38.06000137	-1.507175922	-4.696118355	26.50587463	1.0
90	-80.76699829	-4.885000229	-38.06000137	-1.507175922	-4.696118355	26.50587463	1.0
91	-80.76699829	-4.885000229	-38.06000137	-1.507175922	-4.696118355	26.50587463	1.0
[RightHandPinky2]
88	-36	0	0.0009999999311	-0.2127676606	-1.388874292	17.43785858	1.0
89	-36	0	0.0009999999311	-0.2127676606	-1.388874292	17.43785858	1.0
90	-36	0	0.0009999999311	-0.2127676606	-1.388874292	17.43785858	1.0
91	-36	0	0.0009999999311	-0.2127676606	-1.388874292	17.43785858	1.0
[RightHandPinky3]
88	-21.14200211	0	0	-0.1919144988	-1.32059598	16.53641129	1.0
89	-21.14200211	0	0	-0.1919144988	-1.32059598	16.53641129	1.0
90	-21.14200211	0	0	-0.1919144988	-1.32059598	16.53641129	1.0
91	-21.14200211	0	0	-0.1919144988	-1.32059598	16.53641129	1.0
[RightHandPinky4]
88	-19.75699997	0	0	0	0	0	1.0
89	-19.75699997	0	0	0	0	0	1.0
90	-19.75699997	0	0	0	0	0	1.0
91	-19.75699997	0	0	0	0	0	1.0
[RightHandRing1]
88	-91.03599548	-0.4390000105	-18.65100098	-1.045235753	-2.883111477	20.47788429	1.0
89	-91.03599548	-0.4390000105	-18.65100098	-1.045235753	-2.883111477	20.47788429	1.0
90	-91.03599548	-0.4390000105	-18.65100098	-1.045235753	-2.883111477	20.47788429	1.0
91	-91.03599548	-0.4390000105	-18.65100098	-1.045235753	-2.883111477	20.47788429	1.0
[RightHandRing2]
88	-31.54000092	0	0	-0.3066971898	-1.658752441	20.94926834	1.0
89	-31.54000092	0	0	-0.3066971898	-1.658752441	20.94926834	1.0
90	-31.54000092	0	0	-0.3066971898	-1.658752441	20.94926834	1.0
91	-31.54000092	0	0	-0.3066971898	-1.658752441	20.94926834	1.0
[RightHandRing3]
88	-29.37700081	0	0	-0.2245407403	-1.425854325	17.89771652	1.0
89	-29.37700081	0	0	-0.2245407403	-1.425854325	17.89771652	1.0
90	-29.37700081	0	0	-0.2245407403	-1.425854325	17.89771652	1.0
91	-29.37700081	0	0	-0.2245407403	-1.425854325	17.89771652	1.0
[RightHandRing4]
88	-26.47500038	0	0	0	0	0	1.0
89	-26.47500038	0	0	0	0	0	1.0
90	-26.47500038	0	0	0	0	0	1.0
91	-26.47500038	0	0	0	0	0	1.0
[RightHandMiddle1]
88	-95.32500458	0	0	-0.7017197609	-2.087752104	15.0152874	1.0
89	-95.32500458	0	0	-0.7017197609	-2.087752104	15.0152874	1.0
90	-95.32500458	0	0	-0.7017197609	-2.087752104	15.0152874	1.0
91	-95.32500458	0	0	-0.7017197609	-2.087752104	15.0152874	1.0
[RightHandMiddle2]
88	-36.98199844	0	0	-0.213228479	-1.390354872	17.43750381	1.0
89	-36.98199844	0	0	-0.213228479	-1.390354872	17.43750381	1.0
90	-36.98199844	0	0	-0.213228479	-1.390354872	17.43750381	1.0
91	-36.98199844	0	0	-0.213228479	-1.390354872	17.43750381	1.0
[RightHandMiddle3]
88	-29.50900078	0	0	-0.2384106964	-1.470119596	18.44692802	1.0
89	-29.50900078	0	0	-0.2384106964	-1.470119596	18.44692802	1.0
90	-29.50900078	0	0	-0.2384106964	-1.470119596	18.44692802	1.0
91	-29.50900078	0	0	-0.2384106964	-1.470119596	18.44692802	1.0
[RightHandMiddle4]
88	-28.3390007	0	0.0009999999311	0	0	0	1.0
89	-28.3390007	0	0.0009999999311	0	0	0	1.0
90	-28.3390007	0	0.0009999999311	0	0	0	1.0
91	-28.3390007	0	0.0009999999311	0	0	0	1.0
[RightHandIndex1]
88	-91.08300018	-5.167999744	22.60099792	0.1884763837	1.25192976	6.825599194	1.0
89	-91.08300018	-5.167999744	22.60099792	0.1884763837	1.25192976	6.825599194	1.0
90	-91.08300018	-5.167999744	22.60099792	0.1884763837	1.25192976	6.825599194	1.0
91	-91.08300018	-5.167999744	22.60099792	0.1884763837	1.25192976	6.825599194	1.0
[RightHandIndex2]
88	-36.76399994	0	0	-0.2125098109	-1.388050556	17.40767097	1.0
89	-36.76399994	0	0	-0.2125098109	-1.388050556	17.40767097	1.0
90	-36.76399994	0	0	-0.2125098109	-1.388050556	17.40767097	1.0
91	-36.76399994	0	0	-0.2125098109	-1.388050556	17.40767097	1.0
[RightHandIndex3]
88	-28.83100128	0	0	-0.04576345533	-0.650116384	8.053516388	1.0
89	-28.83100128	0	0	-0.04576345533	-0.650116384	8.053516388	1.0
90	-28.83100128	0	0	-0.04576345533	-0.650116384	8.053516388	1.0
91	-28.83100128	0	0	-0.04576345533	-0.650116384	8.053516388	1.0
[RightHandIndex4]
88	-23.92700005	0	0	0	0	0	1.0
89	-23.92700005	0	0	0	0	0	1.0
90	-23.92700005	0	0	0	0	0	1.0
91	-23.92700005	0	0	0	0	0	1.0
[RightHandThumb1]
88	-24.64799881	-15.72700024	26.82600021	-1.658462524	-0.2891407609	-4.221328735	1.0
89	-24.64799881	-15.72700024	26.82600021	-1.658462524	-0.2891407609	-4.221328735	1.0
90	-24.64799881	-15.72700024	26.82600021	-1.658462524	-0.2891407609	-4.221328735	1.0
91	-24.64799881	-15.72700024	26.82600021	-1.658462524	-0.2891407609	-4.221328735	1.0
[RightHandThumb2]
88	-32.29800034	-18.64699936	18.64699936	22.25259209	-23.88967514	-24.282444	1.0
89	-32.29800034	-18.64699936	18.64699936	22.25259209	-23.88967514	-24.282444	1.0
90	-32.29800034	-18.64699936	18.64699936	22.25259209	-23.88967514	-24.282444	1.0
91	-32.29800034	-18.64699936	18.64699936	22.25259209	-23.88967514	-24.282444	1.0
[RightHandThumb3]
88	-26.52600098	-15.31399918	15.31399918	-14.47830296	-6.743862152	-11.36570263	1.0
89	-26.52600098	-15.31399918	15.31399918	-14.47830296	-6.743862152	-11.36570263	1.0
90	-26.52600098	-15.31399918	15.31399918	-14.47830296	-6.743862152	-11.36570263	1.0
91	-26.52600098	-15.31399918	15.31399918	-14.47830296	-6.743862152	-11.36570263	1.0
[RightHandThumb4]
88	-19.54599953	-11.28499985	11.28499985	0	0	0	1.0
89	-19.54599953	-11.28499985	11.28499985	0	0	0	1.0
90	-19.54599953	-11.28499985	11.28499985	0	0	0	1.0
91	-19.54599953	-11.28499985	11.28499985	0	0	0	1.0
[LeftUpLeg]
88	82.07800293	-67.51699829	-15.99599934	-6.961878777	16.14431953	7.549291134	1.0
89	82.07800293	-67.51699829	-15.99599934	-6.9484272	16.12272644	7.527992725	1.0
90	82.07800293	-67.51699829	-15.99599934	-6.931981087	16.10116196	7.506742477	1.0
91	82.07800293	-67.51699829	-15.99599934	-6.913254261	16.08028603	7.486290455	1.0
[LeftLeg]
88	0	-443.7049866	2.845999956	11.37062359	0.7178318501	4.50772047	1.0
89	0	-443.7049866	2.845999956	11.30351353	0.7769312263	4.515788555	1.0
90	0	-443.7049866	2.845999956	11.2343235	0.8372275233	4.523945808	1.0
91	0	-443.7049866	2.845999956	11.16662502	0.8962723613	4.53183794	1.0
[LeftFoot]
88	0	-444.2789917	-29.8219986	1.501342773	0.7039635181	-7.335838795	1.0
89	0	-444.2789917	-29.8219986	1.531502843	0.70451653	-7.33095932	1.0
90	0	-444.2789917	-29.8219986	1.561757803	0.7050901651	-7.326293945	1.0
91	0	-444.2789917	-29.8219986	1.590788007	0.7056391835	-7.321758747	1.0
[LeftToeBase]
88	0	-87.28699493	107.1060028	-4.87505722	-1.658468136e-06	-3.311692581e-06	1.0
89	0	-87.28699493	107.1060028	-4.874840736	1.772915994e-06	-3.31714773e-06	1.0
90	0	-87.28699493	107.1060028	-4.874869347	3.30680632e-06	-2.612421213e-06	1.0
91	0	-87.28699493	107.1060028	-4.874969006	3.866361112e-06	-1.6296583e-06	1.0
[RightUpLeg]
88	-82.07800293	-67.51699829	-15.99599934	0.7087093592	-10.71971989	2.938551426	1.0
89	-82.07800293	-67.51699829	-15.99599934	0.7243515253	-10.72551537	2.918514729	1.0
90	-82.07800293	-67.51699829	-15.99599934	0.743637085	-10.73117828	2.897783518	1.0
91	-82.07800293	-67.51699829	-15.99599934	0.7659708858	-10.73675537	2.876807213	1.0
[RightLeg]
88	0	-443.7049866	2.861999989	8.715219498	-9.191226006	-4.732616425	1.0
89	0	-443.7049866	2.861999989	8.621279716	-9.198605537	-4.709277153	1.0
90	0	-443.7049866	2.861999989	8.522890091	-9.206315041	-4.685809135	1.0
91	0	-443.7049866	2.861999989	8.424468994	-9.213933945	-4.663006306	1.0
[RightFoot]
88	0	-444.2770081	-29.83799934	-4.735395432	-1.621683717	3.280869246	1.0
89	0	-444.2770081	-29.83799934	-4.676659584	-1.585704684	3.277802706	1.0
90	0	-444.2770081	-29.83799934	-4.616026402	-1.54819262	3.275167227	1.0
91	0	-444.2770081	-29.83799934	-4.556044102	-1.511052132	3.273172617	1.0
[RightToeBase]
88	0	-87.28699493	107.1060028	-7.055853367	1.222570154e-05	-2.202737619e-07	1.0
89	0	-87.28699493	107.1060028	-7.040143967	1.189910927e-05	-1.919364934e-07	1.0
90	0	-87.28699493	107.1060028	-7.024110794	1.055966459e-05	-2.972570883e-07	1.0
91	0	-87.28699493	107.1060028	-7.007826328	8.467573025e-06	-4.415508386e-07	1.0
[EndOfFile]
